<?xml version="1.0" standalone="no"?>
<!DOCTYPE svg PUBLIC "-//W3C//DTD SVG 20010904//EN"
 "http://www.w3.org/TR/2001/REC-SVG-20010904/DTD/svg10.dtd">
<svg version="1.0" xmlns="http://www.w3.org/2000/svg"
 width="500.000000pt" height="500.000000pt" viewBox="0 0 500.000000 500.000000"
 preserveAspectRatio="xMidYMid meet">

<g transform="translate(0.000000,500.000000) scale(0.100000,-0.100000)"
fill="#000000" stroke="none">
<path d="M2873 4410 c-12 -5 -27 -18 -33 -30 -28 -52 -680 -1757 -680 -1778 0
-31 52 -82 84 -82 57 0 61 8 411 916 184 479 335 884 335 901 0 58 -62 97
-117 73z m65 -70 c3 -35 -661 -1750 -682 -1762 -19 -11 -46 6 -46 27 0 24 670
1749 682 1757 22 14 43 4 46 -22z"/>
<path d="M2053 4053 c-142 -108 -613 -481 -645 -512 -51 -47 -53 -93 -5 -138
27 -26 515 -413 655 -520 53 -40 99 -44 129 -10 30 32 36 62 19 94 -8 15 -150
134 -315 263 -165 129 -300 237 -300 240 0 3 137 113 304 244 196 155 308 249
315 267 14 32 8 57 -21 87 -31 34 -78 29 -136 -15z m110 -32 c2 -10 2 -23 -2
-28 -3 -6 -150 -124 -326 -262 -176 -139 -321 -256 -322 -259 -1 -4 135 -115
303 -247 374 -294 358 -279 344 -305 -6 -11 -18 -20 -28 -20 -9 1 -172 123
-362 273 -284 224 -345 277 -345 297 0 20 61 73 345 297 206 163 354 273 366
273 13 0 24 -8 27 -19z"/>
<path d="M2975 4065 c-28 -27 -32 -70 -10 -101 8 -12 147 -126 310 -254 162
-128 295 -236 295 -240 0 -3 -131 -109 -291 -235 -160 -127 -300 -241 -310
-254 -42 -53 -5 -131 63 -131 29 0 86 42 396 285 376 297 386 307 366 363 -6
17 -135 125 -368 309 -393 310 -398 312 -451 258z m425 -302 c207 -163 350
-283 350 -293 0 -10 -142 -128 -347 -290 -356 -281 -398 -307 -398 -250 0 20
55 68 320 277 176 139 321 256 323 261 1 5 -144 125 -323 266 -209 165 -325
263 -325 275 0 22 9 31 31 31 10 0 176 -125 369 -277z"/>
</g>
</svg>
